<?xml version="1.0" encoding="UTF-8" standalone="no"?>
<!-- Created with Inkscape (http://www.inkscape.org/) -->

<svg
   width="512"
   height="512"
   viewBox="0 0 135.46667 135.46667"
   version="1.1"
   id="svg5"
   inkscape:version="1.1.1 (3bf5ae0d25, 2021-09-20, custom)"
   sodipodi:docname="Elara Project Logo.svg"
   inkscape:export-filename="/home/songtech/Pictures/Raster Images/Elara Project Logo.png"
   inkscape:export-xdpi="96"
   inkscape:export-ydpi="96"
   xmlns:inkscape="http://www.inkscape.org/namespaces/inkscape"
   xmlns:sodipodi="http://sodipodi.sourceforge.net/DTD/sodipodi-0.dtd"
   xmlns:xlink="http://www.w3.org/1999/xlink"
   xmlns="http://www.w3.org/2000/svg"
   xmlns:svg="http://www.w3.org/2000/svg">
  <sodipodi:namedview
     id="namedview7"
     pagecolor="#ffffff"
     bordercolor="#666666"
     borderopacity="1.0"
     inkscape:pageshadow="2"
     inkscape:pageopacity="0.0"
     inkscape:pagecheckerboard="true"
     inkscape:document-units="mm"
     showgrid="false"
     units="px"
     width="512px"
     inkscape:zoom="1.4734708"
     inkscape:cx="228.03302"
     inkscape:cy="310.15206"
     inkscape:window-width="1920"
     inkscape:window-height="1007"
     inkscape:window-x="0"
     inkscape:window-y="0"
     inkscape:window-maximized="1"
     inkscape:current-layer="layer1" />
  <defs
     id="defs2">
    <linearGradient
       inkscape:collect="always"
       id="linearGradient1778">
      <stop
         style="stop-color:#00ff86;stop-opacity:1"
         offset="0"
         id="stop1774" />
      <stop
         style="stop-color:#008e9c;stop-opacity:1"
         offset="1"
         id="stop1776" />
    </linearGradient>
    <linearGradient
       inkscape:collect="always"
       xlink:href="#linearGradient1778"
       id="linearGradient1780"
       x1="19.672543"
       y1="67.73333"
       x2="115.88657"
       y2="67.73333"
       gradientUnits="userSpaceOnUse" />
  </defs>
  <g
     inkscape:label="Layer 1"
     inkscape:groupmode="layer"
     id="layer1">
    <circle
       style="fill:url(#linearGradient1780);fill-rule:evenodd;stroke-width:0.264583;fill-opacity:1"
       id="path31"
       cx="67.73333"
       cy="67.73333"
       r="48.153244" />
    <path
       id="circle2148"
       style="color:#000000;fill:#fdffff;fill-rule:evenodd;stroke-width:1;-inkscape-stroke:none"
       d="m 67.732295,27.56059 c -22.179121,0 -40.171705,17.992585 -40.171705,40.171706 0,15.921342 9.272145,29.685808 22.70869,36.185904 l 0.347781,-1.29759 C 37.741224,96.294437 28.88299,83.052838 28.882988,67.732296 c 2e-6,-21.464164 17.385143,-38.849307 38.849307,-38.849307 0.880343,0 1.753256,0.03183 2.618962,0.0894 l 0.349332,-1.302245 C 69.720446,27.598484 68.730658,27.56059 67.732295,27.56059 Z m 16.508037,3.540353 -0.345715,1.29191 c 13.390572,6.130383 22.689573,19.643577 22.689573,35.339443 0,21.464167 -17.387728,38.851894 -38.851895,38.851894 -1.238231,0 -2.462046,-0.0605 -3.670575,-0.17363 l -0.347784,1.29604 c 1.321782,0.13142 2.662113,0.19947 4.018359,0.19947 22.179124,0 40.173775,-17.994653 40.173775,-40.173774 0,-16.296164 -9.714501,-30.331807 -23.665738,-36.631353 z" />
    <g
       id="g3643"
       transform="matrix(1.4243823,0,0,1.4243823,-28.430191,-30.239579)">
      <g
         id="g3099"
         transform="matrix(0.77090067,0,0,0.77090067,15.619948,15.759502)">
        <rect
           style="fill:#ffffff;fill-opacity:1;stroke:none;stroke-width:0.730106;stroke-miterlimit:4;stroke-dasharray:none;stroke-opacity:1"
           id="rect3010"
           width="14.66909"
           height="4.471302"
           x="63.893047"
           y="55.169804"
           ry="1.463677" />
        <rect
           style="fill:#ffffff;fill-opacity:1;stroke:none;stroke-width:0.730106;stroke-miterlimit:4;stroke-dasharray:none;stroke-opacity:1"
           id="rect3092"
           width="14.66909"
           height="4.471302"
           x="63.893047"
           y="77.944885"
           ry="1.463677" />
        <rect
           style="fill:#ffffff;fill-opacity:1;stroke:none;stroke-width:0.706836;stroke-miterlimit:4;stroke-dasharray:none;stroke-opacity:1"
           id="rect3094"
           width="13.74891"
           height="4.471302"
           x="56.279282"
           y="66.15612"
           ry="1.463677" />
        <circle
           style="fill:#ffffff;fill-opacity:1;stroke:none;stroke-width:2.32482;stroke-miterlimit:4;stroke-dasharray:none;stroke-opacity:1"
           id="path3123"
           cx="58.284061"
           cy="57.363579"
           r="2.2179859" />
        <circle
           style="fill:#ffffff;fill-opacity:1;stroke:none;stroke-width:2.32482;stroke-miterlimit:4;stroke-dasharray:none;stroke-opacity:1"
           id="circle3205"
           cx="58.284061"
           cy="80.147942"
           r="2.2179859" />
      </g>
    </g>
  </g>
</svg>
